<svg width="126" height="126" viewBox="0 0 126 126" fill="none" xmlns="http://www.w3.org/2000/svg">
<path d="M61.4693 15.4668L68.2075 15.4668V17L59.5845 17L59.5845 2.78125L61.4693 2.78125L61.4693 15.4668Z" fill="white"/>
<path d="M88.7174 16.6642C88.1843 17.9514 87.5018 18.9864 86.6701 19.7694C85.8409 20.5464 84.9247 21.0231 83.9215 21.1995C82.9182 21.3758 81.8873 21.2448 80.8287 20.8063C79.7941 20.3778 78.9815 19.7452 78.3908 18.9086C77.8026 18.066 77.4803 17.0833 77.4239 15.9606C77.3759 14.8344 77.6026 13.6493 78.1038 12.4053L78.4962 11.4579C79.0194 10.1948 79.7011 9.17 80.5413 8.38349C81.3815 7.59697 82.3075 7.11376 83.3192 6.93386C84.3395 6.75044 85.3669 6.87299 86.4014 7.30151C87.454 7.73751 88.2744 8.37682 88.8626 9.21945C89.4593 10.0585 89.7737 11.052 89.8056 12.1998C89.84 13.3415 89.5919 14.553 89.0613 15.8341L88.7174 16.6642ZM87.3455 15.1023C87.9908 13.5444 88.1725 12.2209 87.8908 11.1318C87.6116 10.0366 86.9096 9.25608 85.7848 8.79019C84.6901 8.33675 83.6538 8.39726 82.6759 8.97172C81.7066 9.54266 80.9064 10.5642 80.2755 12.0364L79.8756 13.0018C79.2503 14.5115 79.074 15.8302 79.3468 16.958C79.6281 18.0822 80.3251 18.8747 81.4379 19.3357C82.5566 19.7991 83.5909 19.7518 84.5408 19.194C85.4931 18.6301 86.2935 17.591 86.9419 16.0767L87.3455 15.1023Z" fill="white"/>
<path d="M102.51 17.3478L97.5934 28.8383L109.084 23.9217L110.803 25.6411L100.749 35.6953L99.4234 34.3695L103.339 30.4541L107.689 26.3524L96.2469 31.193L95.2318 30.1779L100.059 18.7634L95.9845 23.1L92.0692 27.0153L90.7433 25.6895L100.798 15.6353L102.51 17.3478Z" fill="white"/>
<path d="M103.866 41.4562L117.003 36.0149L118.782 40.3095C119.372 41.735 119.521 42.9277 119.228 43.8877C118.937 44.8536 118.215 45.5758 117.06 46.0541C116.446 46.3082 115.83 46.3593 115.21 46.2072C114.596 46.0527 114.036 45.7283 113.528 45.2339C113.623 46.0259 113.476 46.7422 113.086 47.3829C112.705 48.0272 112.129 48.5087 111.359 48.8276C110.18 49.316 109.096 49.3177 108.106 48.8329C107.116 48.348 106.332 47.4079 105.754 46.0124L103.866 41.4562ZM110.728 40.6435L106 42.6017L107.185 45.4618C107.519 46.2678 107.989 46.8164 108.596 47.1076C109.212 47.4024 109.886 47.3978 110.62 47.0938C112.202 46.4386 112.636 45.2508 111.924 43.5306L110.728 40.6435ZM112.117 40.0679L113.201 42.6844C113.515 43.4423 113.955 43.9683 114.521 44.2624C115.089 44.5626 115.698 44.5782 116.348 44.3091C117.069 44.0101 117.506 43.5828 117.656 43.0273C117.812 42.4692 117.712 41.7601 117.356 40.9L116.295 38.3376L112.117 40.0679Z" fill="white"/>
<path d="M112.711 65.9785V60.0215L109 58.6836V56.75L123.219 62.1797V63.8203L109 69.2598V67.3359L112.711 65.9785ZM114.254 60.5879V65.4219L120.904 63L114.254 60.5879Z" fill="white"/>
<path d="M110.423 83.7452L111.701 80.6596L106.387 78.4585L107.108 76.7172L120.245 82.1584L118.443 86.5072C117.83 87.9868 117.023 88.9841 116.02 89.499C115.015 90.02 113.869 90.0138 112.582 89.4807C111.764 89.1418 111.143 88.6241 110.72 87.9273C110.295 87.2366 110.095 86.435 110.12 85.5225L103.266 86.2985L103.158 86.2537L103.928 84.3951L110.423 83.7452ZM113.118 81.2464L112.015 83.9079C111.659 84.7681 111.599 85.5429 111.834 86.2325C112.068 86.9282 112.557 87.4304 113.303 87.7394C114.115 88.0757 114.839 88.09 115.474 87.7822C116.106 87.4804 116.614 86.8736 116.999 85.9618L118.098 83.3093L113.118 81.2464Z" fill="white"/>
<path d="M99.0002 92.0535L109.054 102.108L106.216 104.946C105.342 105.82 104.375 106.401 103.316 106.686C102.257 106.971 101.189 106.939 100.112 106.589C99.0302 106.244 98.0243 105.611 97.0944 104.69L96.4522 104.048C95.5038 103.1 94.857 102.085 94.5118 101.003C94.1619 99.9256 94.1366 98.8553 94.4358 97.7919C94.7304 96.733 95.3243 95.7479 96.2174 94.8364L99.0002 92.0535ZM106.638 102.342L98.7586 94.4635L97.3637 95.8584C96.3417 96.8804 95.8652 97.9921 95.9343 99.1936C95.9987 100.4 96.6179 101.59 97.7918 102.764L98.3788 103.351C99.5204 104.492 100.676 105.109 101.845 105.201C103.015 105.303 104.096 104.865 105.091 103.889L106.638 102.342Z" fill="white"/>
<path d="M80.1583 111.422L84.5612 109.599L85.1255 110.961L80.7226 112.785L80.1583 111.422Z" fill="white"/>
<path d="M64.5307 110.533H57.7925V109H66.4155V123.219H64.5307V110.533Z" fill="white"/>
<path d="M37.2826 109.336C37.8157 108.049 38.4982 107.014 39.3299 106.231C40.1591 105.454 41.0753 104.977 42.0785 104.801C43.0818 104.624 44.1127 104.755 45.1713 105.194C46.2059 105.622 47.0185 106.255 47.6092 107.091C48.1974 107.934 48.5197 108.917 48.5761 110.039C48.6241 111.166 48.3974 112.351 47.8962 113.595L47.5038 114.542C46.9806 115.805 46.2989 116.83 45.4587 117.617C44.6185 118.403 43.6925 118.886 42.6808 119.066C41.6605 119.25 40.6331 119.127 39.5986 118.698C38.546 118.262 37.7256 117.623 37.1374 116.781C36.5407 115.941 36.2263 114.948 36.1944 113.8C36.16 112.658 36.4081 111.447 36.9387 110.166L37.2826 109.336ZM38.6545 110.898C38.0092 112.456 37.8275 113.779 38.1092 114.868C38.3884 115.963 39.0904 116.744 40.2152 117.21C41.3099 117.663 42.3462 117.603 43.3241 117.028C44.2934 116.457 45.0936 115.436 45.7245 113.964L46.1244 112.998C46.7497 111.488 46.926 110.17 46.6532 109.042C46.3719 107.918 45.6749 107.125 44.5621 106.664C43.4434 106.201 42.4091 106.248 41.4592 106.806C40.5069 107.37 39.7065 108.409 39.0581 109.923L38.6545 110.898Z" fill="white"/>
<path d="M23.49 108.652L28.4066 97.1617L16.9161 102.078L15.1966 100.359L25.2508 90.3047L26.5766 91.6305L22.6613 95.5459L18.3109 99.6476L29.7531 94.807L30.7682 95.8221L25.9413 107.237L30.0155 102.9L33.9308 98.9847L35.2567 100.311L25.2025 110.365L23.49 108.652Z" fill="white"/>
<path d="M22.1336 84.5438L8.99723 89.9851L7.21835 85.6905C6.62788 84.265 6.47914 83.0723 6.77211 82.1123C7.06259 81.1464 7.78526 80.4242 8.94011 79.9459C9.55362 79.6918 10.1702 79.6407 10.7899 79.7928C11.4036 79.9473 11.9643 80.2717 12.4721 80.7661C12.3766 79.9741 12.5238 79.2578 12.9138 78.6171C13.2952 77.9728 13.8709 77.4913 14.6408 77.1724C15.8197 76.684 16.9042 76.6823 17.8943 77.1671C18.8843 77.652 19.6684 78.5921 20.2464 79.9876L22.1336 84.5438ZM15.272 85.3565L19.9996 83.3983L18.8149 80.5382C18.4811 79.7322 18.0107 79.1836 17.4039 78.8924C16.7885 78.5976 16.1139 78.6022 15.3801 78.9062C13.7982 79.5614 13.3635 80.7492 14.0761 82.4694L15.272 85.3565ZM13.8825 85.9321L12.7988 83.3156C12.4848 82.5577 12.045 82.0317 11.4792 81.7376C10.9109 81.4374 10.302 81.4218 9.65236 81.6909C8.93057 81.9899 8.49448 82.4172 8.34408 82.9727C8.18767 83.5308 8.28759 84.2399 8.64387 85.1L9.70522 87.6624L13.8825 85.9321Z" fill="white"/>
<path d="M13.2891 60.0215V65.9785L17 67.3164V69.25L2.78125 63.8203V62.1797L17 56.7402V58.6641L13.2891 60.0215ZM11.7461 65.4121V60.5781L5.0957 63L11.7461 65.4121Z" fill="white"/>
<path d="M15.577 42.2548L14.2989 45.3404L19.613 47.5415L18.8917 49.2828L5.75534 43.8416L7.55664 39.4928C8.16953 38.0132 8.97724 37.0159 9.97977 36.501C10.9848 35.98 12.1309 35.9862 13.4181 36.5193C14.2361 36.8582 14.8567 37.3759 15.2798 38.0727C15.7054 38.7634 15.9054 39.565 15.8798 40.4775L22.7336 39.7015L22.8419 39.7463L22.0721 41.6049L15.577 42.2548ZM12.8824 44.7536L13.9849 42.0921C14.3411 41.2319 14.4014 40.4571 14.1656 39.7675C13.9322 39.0718 13.4426 38.5696 12.6968 38.2606C11.8848 37.9243 11.1614 37.91 10.5265 38.2178C9.8941 38.5196 9.38555 39.1264 9.00084 40.0382L7.90212 42.6907L12.8824 44.7536Z" fill="white"/>
<path d="M26.9998 33.9465L16.9456 23.8924L19.7837 21.0543C20.6584 20.1796 21.6251 19.5995 22.6839 19.3141C23.7427 19.0287 24.8108 19.0609 25.888 19.4108C26.9698 19.7561 27.9757 20.389 28.9056 21.3098L29.5478 21.952C30.4962 22.9003 31.143 23.9154 31.4882 24.9972C31.8381 26.0744 31.8634 27.1448 31.5642 28.2082C31.2696 29.267 30.6757 30.2522 29.7826 31.1637L26.9998 33.9465ZM19.3625 23.6576L27.2414 31.5366L28.6363 30.1417C29.6583 29.1197 30.1348 28.0079 30.0657 26.8064C30.0013 25.6003 29.3821 24.4103 28.2082 23.2364L27.6212 22.6494C26.4796 21.5077 25.3241 20.8908 24.1548 20.7988C22.9855 20.6975 21.9036 21.1348 20.9093 22.1108L19.3625 23.6576Z" fill="white"/>
<path d="M45.8417 14.5775L41.4388 16.4012L40.8745 15.0389L45.2774 13.2152L45.8417 14.5775Z" fill="white"/>
</svg>
